<mxfile host="app.diagrams.net" agent="Mozilla/5.0 (Macintosh; Intel Mac OS X 10_15_7) AppleWebKit/605.1.15 (KHTML, like Gecko) Version/18.1 Safari/605.1.15" version="26.0.11">
  <diagram id="XOhDwPLK-k8w6zGNZeyG" name="Page-1">
    <mxGraphModel dx="838" dy="593" grid="1" gridSize="10" guides="1" tooltips="1" connect="1" arrows="1" fold="1" page="1" pageScale="1" pageWidth="850" pageHeight="1100" math="0" shadow="0">
      <root>
        <mxCell id="0" />
        <mxCell id="1" parent="0" />
        <mxCell id="FP8ojH26nC4vi-oFqpqf-1" value="" style="swimlane;startSize=0;" vertex="1" parent="1">
          <mxGeometry x="520" y="1120" width="280" height="200" as="geometry" />
        </mxCell>
        <mxCell id="FP8ojH26nC4vi-oFqpqf-2" value="Data lake" style="rounded=1;whiteSpace=wrap;html=1;" vertex="1" parent="FP8ojH26nC4vi-oFqpqf-1">
          <mxGeometry x="40" y="40" width="80" height="40" as="geometry" />
        </mxCell>
        <mxCell id="FP8ojH26nC4vi-oFqpqf-3" value="Inference" style="rounded=1;whiteSpace=wrap;html=1;" vertex="1" parent="FP8ojH26nC4vi-oFqpqf-1">
          <mxGeometry x="160" y="40" width="80" height="40" as="geometry" />
        </mxCell>
        <mxCell id="FP8ojH26nC4vi-oFqpqf-8" value="Feature store" style="rounded=1;whiteSpace=wrap;html=1;" vertex="1" parent="FP8ojH26nC4vi-oFqpqf-1">
          <mxGeometry x="40" y="120" width="80" height="40" as="geometry" />
        </mxCell>
        <mxCell id="FP8ojH26nC4vi-oFqpqf-29" value="Storage" style="text;html=1;align=center;verticalAlign=middle;whiteSpace=wrap;rounded=0;" vertex="1" parent="FP8ojH26nC4vi-oFqpqf-1">
          <mxGeometry y="160" width="280" height="40" as="geometry" />
        </mxCell>
        <mxCell id="FP8ojH26nC4vi-oFqpqf-51" value="Metrics" style="rounded=1;whiteSpace=wrap;html=1;" vertex="1" parent="FP8ojH26nC4vi-oFqpqf-1">
          <mxGeometry x="160" y="120" width="80" height="40" as="geometry" />
        </mxCell>
        <mxCell id="FP8ojH26nC4vi-oFqpqf-54" style="edgeStyle=orthogonalEdgeStyle;rounded=0;orthogonalLoop=1;jettySize=auto;html=1;exitX=1;exitY=0.75;exitDx=0;exitDy=0;" edge="1" parent="1" source="FP8ojH26nC4vi-oFqpqf-5" target="FP8ojH26nC4vi-oFqpqf-8">
          <mxGeometry relative="1" as="geometry" />
        </mxCell>
        <mxCell id="FP8ojH26nC4vi-oFqpqf-56" style="edgeStyle=orthogonalEdgeStyle;rounded=0;orthogonalLoop=1;jettySize=auto;html=1;exitX=0.5;exitY=0;exitDx=0;exitDy=0;entryX=0.5;entryY=0;entryDx=0;entryDy=0;" edge="1" parent="1" source="FP8ojH26nC4vi-oFqpqf-5" target="FP8ojH26nC4vi-oFqpqf-3">
          <mxGeometry relative="1" as="geometry" />
        </mxCell>
        <mxCell id="FP8ojH26nC4vi-oFqpqf-5" value="" style="swimlane;startSize=0;" vertex="1" parent="1">
          <mxGeometry x="40" y="1120" width="160" height="200" as="geometry" />
        </mxCell>
        <mxCell id="FP8ojH26nC4vi-oFqpqf-6" value="Model&lt;div&gt;training&lt;/div&gt;" style="rounded=1;whiteSpace=wrap;html=1;" vertex="1" parent="FP8ojH26nC4vi-oFqpqf-5">
          <mxGeometry x="40" y="40" width="80" height="40" as="geometry" />
        </mxCell>
        <mxCell id="FP8ojH26nC4vi-oFqpqf-7" value="Inference" style="rounded=1;whiteSpace=wrap;html=1;" vertex="1" parent="FP8ojH26nC4vi-oFqpqf-5">
          <mxGeometry x="40" y="120" width="80" height="40" as="geometry" />
        </mxCell>
        <mxCell id="FP8ojH26nC4vi-oFqpqf-30" value="Compute" style="text;html=1;align=center;verticalAlign=middle;whiteSpace=wrap;rounded=0;" vertex="1" parent="FP8ojH26nC4vi-oFqpqf-5">
          <mxGeometry y="160" width="160" height="40" as="geometry" />
        </mxCell>
        <mxCell id="FP8ojH26nC4vi-oFqpqf-48" style="edgeStyle=orthogonalEdgeStyle;rounded=0;orthogonalLoop=1;jettySize=auto;html=1;exitX=0.25;exitY=0;exitDx=0;exitDy=0;entryX=0.25;entryY=1;entryDx=0;entryDy=0;" edge="1" parent="1" source="FP8ojH26nC4vi-oFqpqf-9" target="FP8ojH26nC4vi-oFqpqf-30">
          <mxGeometry relative="1" as="geometry" />
        </mxCell>
        <mxCell id="FP8ojH26nC4vi-oFqpqf-49" style="edgeStyle=orthogonalEdgeStyle;rounded=0;orthogonalLoop=1;jettySize=auto;html=1;exitX=1;exitY=0.5;exitDx=0;exitDy=0;" edge="1" parent="1" source="FP8ojH26nC4vi-oFqpqf-9" target="FP8ojH26nC4vi-oFqpqf-26">
          <mxGeometry relative="1" as="geometry" />
        </mxCell>
        <mxCell id="FP8ojH26nC4vi-oFqpqf-9" value="" style="swimlane;startSize=0;" vertex="1" parent="1">
          <mxGeometry x="40" y="1840" width="160" height="120" as="geometry" />
        </mxCell>
        <mxCell id="FP8ojH26nC4vi-oFqpqf-10" value="registry" style="rounded=1;whiteSpace=wrap;html=1;" vertex="1" parent="FP8ojH26nC4vi-oFqpqf-9">
          <mxGeometry x="40" y="40" width="80" height="40" as="geometry" />
        </mxCell>
        <mxCell id="FP8ojH26nC4vi-oFqpqf-11" value="Moel registry" style="text;html=1;align=center;verticalAlign=middle;whiteSpace=wrap;rounded=0;" vertex="1" parent="FP8ojH26nC4vi-oFqpqf-9">
          <mxGeometry y="80" width="160" height="40" as="geometry" />
        </mxCell>
        <mxCell id="FP8ojH26nC4vi-oFqpqf-26" value="" style="swimlane;startSize=0;" vertex="1" parent="1">
          <mxGeometry x="520" y="1840" width="160" height="120" as="geometry" />
        </mxCell>
        <mxCell id="FP8ojH26nC4vi-oFqpqf-27" value="API" style="rounded=1;whiteSpace=wrap;html=1;" vertex="1" parent="FP8ojH26nC4vi-oFqpqf-26">
          <mxGeometry x="40" y="40" width="80" height="40" as="geometry" />
        </mxCell>
        <mxCell id="FP8ojH26nC4vi-oFqpqf-28" value="API serving" style="text;html=1;align=center;verticalAlign=middle;whiteSpace=wrap;rounded=0;" vertex="1" parent="FP8ojH26nC4vi-oFqpqf-26">
          <mxGeometry y="80" width="160" height="40" as="geometry" />
        </mxCell>
        <mxCell id="FP8ojH26nC4vi-oFqpqf-43" style="edgeStyle=orthogonalEdgeStyle;rounded=0;orthogonalLoop=1;jettySize=auto;html=1;exitX=0;exitY=0.5;exitDx=0;exitDy=0;entryX=0.5;entryY=1;entryDx=0;entryDy=0;" edge="1" parent="1" source="FP8ojH26nC4vi-oFqpqf-31" target="FP8ojH26nC4vi-oFqpqf-30">
          <mxGeometry relative="1" as="geometry" />
        </mxCell>
        <mxCell id="FP8ojH26nC4vi-oFqpqf-50" style="edgeStyle=orthogonalEdgeStyle;rounded=0;orthogonalLoop=1;jettySize=auto;html=1;exitX=1;exitY=0.5;exitDx=0;exitDy=0;entryX=0.5;entryY=0;entryDx=0;entryDy=0;" edge="1" parent="1" source="FP8ojH26nC4vi-oFqpqf-31" target="FP8ojH26nC4vi-oFqpqf-26">
          <mxGeometry relative="1" as="geometry" />
        </mxCell>
        <mxCell id="FP8ojH26nC4vi-oFqpqf-31" value="" style="swimlane;startSize=0;" vertex="1" parent="1">
          <mxGeometry x="280" y="1600" width="160" height="200" as="geometry" />
        </mxCell>
        <mxCell id="FP8ojH26nC4vi-oFqpqf-32" value="Monitoring" style="rounded=1;whiteSpace=wrap;html=1;" vertex="1" parent="FP8ojH26nC4vi-oFqpqf-31">
          <mxGeometry x="40" y="40" width="80" height="40" as="geometry" />
        </mxCell>
        <mxCell id="FP8ojH26nC4vi-oFqpqf-33" value="Logging" style="rounded=1;whiteSpace=wrap;html=1;" vertex="1" parent="FP8ojH26nC4vi-oFqpqf-31">
          <mxGeometry x="40" y="120" width="80" height="40" as="geometry" />
        </mxCell>
        <mxCell id="FP8ojH26nC4vi-oFqpqf-34" value="Infrastructure monitoring" style="text;html=1;align=center;verticalAlign=middle;whiteSpace=wrap;rounded=0;" vertex="1" parent="FP8ojH26nC4vi-oFqpqf-31">
          <mxGeometry y="160" width="160" height="40" as="geometry" />
        </mxCell>
        <mxCell id="FP8ojH26nC4vi-oFqpqf-47" style="edgeStyle=orthogonalEdgeStyle;rounded=0;orthogonalLoop=1;jettySize=auto;html=1;exitX=0.25;exitY=1;exitDx=0;exitDy=0;entryX=0.25;entryY=0;entryDx=0;entryDy=0;" edge="1" parent="1" source="FP8ojH26nC4vi-oFqpqf-30" target="FP8ojH26nC4vi-oFqpqf-9">
          <mxGeometry relative="1" as="geometry" />
        </mxCell>
        <mxCell id="FP8ojH26nC4vi-oFqpqf-55" style="edgeStyle=orthogonalEdgeStyle;rounded=0;orthogonalLoop=1;jettySize=auto;html=1;exitX=0;exitY=0.5;exitDx=0;exitDy=0;entryX=1;entryY=0.75;entryDx=0;entryDy=0;" edge="1" parent="1" source="FP8ojH26nC4vi-oFqpqf-8" target="FP8ojH26nC4vi-oFqpqf-5">
          <mxGeometry relative="1" as="geometry" />
        </mxCell>
        <mxCell id="FP8ojH26nC4vi-oFqpqf-57" style="edgeStyle=orthogonalEdgeStyle;rounded=0;orthogonalLoop=1;jettySize=auto;html=1;exitX=0;exitY=0.5;exitDx=0;exitDy=0;entryX=1;entryY=0.25;entryDx=0;entryDy=0;" edge="1" parent="1" source="FP8ojH26nC4vi-oFqpqf-2" target="FP8ojH26nC4vi-oFqpqf-5">
          <mxGeometry relative="1" as="geometry" />
        </mxCell>
        <mxCell id="FP8ojH26nC4vi-oFqpqf-62" value="" style="swimlane;startSize=0;" vertex="1" parent="1">
          <mxGeometry x="280" y="1360" width="160" height="200" as="geometry" />
        </mxCell>
        <mxCell id="FP8ojH26nC4vi-oFqpqf-63" value="Monitoring" style="rounded=1;whiteSpace=wrap;html=1;" vertex="1" parent="FP8ojH26nC4vi-oFqpqf-62">
          <mxGeometry x="40" y="40" width="80" height="40" as="geometry" />
        </mxCell>
        <mxCell id="FP8ojH26nC4vi-oFqpqf-64" value="Model monitoring" style="text;html=1;align=center;verticalAlign=middle;whiteSpace=wrap;rounded=0;" vertex="1" parent="FP8ojH26nC4vi-oFqpqf-62">
          <mxGeometry y="160" width="160" height="40" as="geometry" />
        </mxCell>
        <mxCell id="FP8ojH26nC4vi-oFqpqf-68" value="Testing" style="rounded=1;whiteSpace=wrap;html=1;" vertex="1" parent="FP8ojH26nC4vi-oFqpqf-62">
          <mxGeometry x="40" y="120" width="80" height="40" as="geometry" />
        </mxCell>
        <mxCell id="FP8ojH26nC4vi-oFqpqf-66" style="edgeStyle=orthogonalEdgeStyle;rounded=0;orthogonalLoop=1;jettySize=auto;html=1;exitX=1;exitY=0.5;exitDx=0;exitDy=0;" edge="1" parent="1" source="FP8ojH26nC4vi-oFqpqf-63" target="FP8ojH26nC4vi-oFqpqf-51">
          <mxGeometry relative="1" as="geometry" />
        </mxCell>
        <mxCell id="FP8ojH26nC4vi-oFqpqf-69" style="edgeStyle=orthogonalEdgeStyle;rounded=0;orthogonalLoop=1;jettySize=auto;html=1;exitX=0;exitY=0.5;exitDx=0;exitDy=0;entryX=0.75;entryY=0;entryDx=0;entryDy=0;" edge="1" parent="1" source="FP8ojH26nC4vi-oFqpqf-68" target="FP8ojH26nC4vi-oFqpqf-9">
          <mxGeometry relative="1" as="geometry" />
        </mxCell>
        <mxCell id="FP8ojH26nC4vi-oFqpqf-70" value="" style="swimlane;startSize=0;" vertex="1" parent="1">
          <mxGeometry y="1080" width="840" height="920" as="geometry" />
        </mxCell>
      </root>
    </mxGraphModel>
  </diagram>
</mxfile>
